<?xml version="1.0" encoding="utf-8"?>
<svg xmlns="http://www.w3.org/2000/svg" xmlns:xlink="http://www.w3.org/1999/xlink" width="600" height="400" viewBox="0 0 2400 1600">
<defs>
  <clipPath id="clip420">
    <rect x="0" y="0" width="2400" height="1600"/>
  </clipPath>
</defs>
<path clip-path="url(#clip420)" d="
M0 1600 L2400 1600 L2400 0 L0 0  Z
  " fill="#ffffff" fill-rule="evenodd" fill-opacity="1"/>
<defs>
  <clipPath id="clip421">
    <rect x="480" y="0" width="1681" height="1600"/>
  </clipPath>
</defs>
<path clip-path="url(#clip420)" d="
M47.2441 1552.76 L2352.76 1552.76 L2352.76 47.2441 L47.2441 47.2441  Z
  " fill="#ffffff" fill-rule="evenodd" fill-opacity="1"/>
<defs>
  <clipPath id="clip422">
    <rect x="47" y="47" width="2307" height="1507"/>
  </clipPath>
</defs>
<polyline clip-path="url(#clip422)" style="stroke:#000000; stroke-linecap:butt; stroke-linejoin:round; stroke-width:4; stroke-opacity:1; fill:none" points="
  47.2441,1646.85 47.2441,1646.85 
  "/>
<polyline clip-path="url(#clip422)" style="stroke:#000000; stroke-linecap:butt; stroke-linejoin:round; stroke-width:4; stroke-opacity:1; fill:none" points="
  47.2441,1646.85 47.2441,1646.85 
  "/>
<polyline clip-path="url(#clip422)" style="stroke:#000000; stroke-linecap:butt; stroke-linejoin:round; stroke-width:4; stroke-opacity:1; fill:none" points="
  2064.57,1458.66 1776.38,1458.66 1776.38,1270.47 2064.57,1270.47 
  "/>
<polyline clip-path="url(#clip422)" style="stroke:#000000; stroke-linecap:butt; stroke-linejoin:round; stroke-width:4; stroke-opacity:1; fill:none" points="
  47.2441,1646.85 47.2441,1646.85 
  "/>
<polyline clip-path="url(#clip422)" style="stroke:#000000; stroke-linecap:butt; stroke-linejoin:round; stroke-width:4; stroke-opacity:1; fill:none" points="
  1776.38,1364.57 1488.19,1364.57 1488.19,1082.28 2064.57,1082.28 
  "/>
<polyline clip-path="url(#clip422)" style="stroke:#000000; stroke-linecap:butt; stroke-linejoin:round; stroke-width:4; stroke-opacity:1; fill:none" points="
  47.2441,1646.85 47.2441,1646.85 
  "/>
<polyline clip-path="url(#clip422)" style="stroke:#000000; stroke-linecap:butt; stroke-linejoin:round; stroke-width:4; stroke-opacity:1; fill:none" points="
  1488.19,1223.43 1200,1223.43 1200,894.094 2064.57,894.094 
  "/>
<polyline clip-path="url(#clip422)" style="stroke:#000000; stroke-linecap:butt; stroke-linejoin:round; stroke-width:4; stroke-opacity:1; fill:none" points="
  47.2441,1646.85 47.2441,1646.85 
  "/>
<polyline clip-path="url(#clip422)" style="stroke:#000000; stroke-linecap:butt; stroke-linejoin:round; stroke-width:4; stroke-opacity:1; fill:none" points="
  1200,1058.76 911.811,1058.76 911.811,705.906 2064.57,705.906 
  "/>
<polyline clip-path="url(#clip422)" style="stroke:#000000; stroke-linecap:butt; stroke-linejoin:round; stroke-width:4; stroke-opacity:1; fill:none" points="
  47.2441,1646.85 47.2441,1646.85 
  "/>
<polyline clip-path="url(#clip422)" style="stroke:#000000; stroke-linecap:butt; stroke-linejoin:round; stroke-width:4; stroke-opacity:1; fill:none" points="
  911.811,882.333 623.622,882.333 623.622,517.717 2064.57,517.717 
  "/>
<polyline clip-path="url(#clip422)" style="stroke:#000000; stroke-linecap:butt; stroke-linejoin:round; stroke-width:4; stroke-opacity:1; fill:none" points="
  47.2441,1646.85 47.2441,1646.85 
  "/>
<polyline clip-path="url(#clip422)" style="stroke:#000000; stroke-linecap:butt; stroke-linejoin:round; stroke-width:4; stroke-opacity:1; fill:none" points="
  623.622,700.025 335.433,700.025 335.433,329.528 2064.57,329.528 
  "/>
<polyline clip-path="url(#clip422)" style="stroke:#000000; stroke-linecap:butt; stroke-linejoin:round; stroke-width:4; stroke-opacity:1; fill:none" points="
  47.2441,1646.85 47.2441,1646.85 
  "/>
<polyline clip-path="url(#clip422)" style="stroke:#000000; stroke-linecap:butt; stroke-linejoin:round; stroke-width:4; stroke-opacity:1; fill:none" points="
  335.433,514.776 47.2441,514.776 47.2441,141.339 2064.57,141.339 
  "/>
<g clip-path="url(#clip420)">
<text style="fill:#000000; fill-opacity:1; font-family:Arial,Helvetica Neue,Helvetica,sans-serif; font-size:84px; font-style:italic; text-anchor:start;" transform="rotate(0, 2064.57, 736.406)" x="2064.57" y="736.406"> Sbay</text>
</g>
<g clip-path="url(#clip420)">
<text style="fill:#000000; fill-opacity:1; font-family:Arial,Helvetica Neue,Helvetica,sans-serif; font-size:84px; font-style:italic; text-anchor:start;" transform="rotate(0, 2064.57, 1489.16)" x="2064.57" y="1489.16"> Scer</text>
</g>
<g clip-path="url(#clip420)">
<text style="fill:#000000; fill-opacity:1; font-family:Arial,Helvetica Neue,Helvetica,sans-serif; font-size:84px; font-style:italic; text-anchor:start;" transform="rotate(0, 2064.57, 924.594)" x="2064.57" y="924.594"> Skud</text>
</g>
<g clip-path="url(#clip420)">
<text style="fill:#000000; fill-opacity:1; font-family:Arial,Helvetica Neue,Helvetica,sans-serif; font-size:84px; font-style:italic; text-anchor:start;" transform="rotate(0, 2064.57, 1300.97)" x="2064.57" y="1300.97"> Spar</text>
</g>
<g clip-path="url(#clip420)">
<text style="fill:#000000; fill-opacity:1; font-family:Arial,Helvetica Neue,Helvetica,sans-serif; font-size:84px; font-style:italic; text-anchor:start;" transform="rotate(0, 2064.57, 360.028)" x="2064.57" y="360.028"> Sklu</text>
</g>
<g clip-path="url(#clip420)">
<text style="fill:#000000; fill-opacity:1; font-family:Arial,Helvetica Neue,Helvetica,sans-serif; font-size:84px; font-style:italic; text-anchor:start;" transform="rotate(0, 2064.57, 548.217)" x="2064.57" y="548.217"> Scas</text>
</g>
<g clip-path="url(#clip420)">
<text style="fill:#000000; fill-opacity:1; font-family:Arial,Helvetica Neue,Helvetica,sans-serif; font-size:84px; font-style:italic; text-anchor:start;" transform="rotate(0, 2064.57, 171.839)" x="2064.57" y="171.839"> Calb</text>
</g>
<g clip-path="url(#clip420)">
<text style="fill:#000000; fill-opacity:1; font-family:Arial,Helvetica Neue,Helvetica,sans-serif; font-size:84px; font-style:italic; text-anchor:start;" transform="rotate(0, 2064.57, 1112.78)" x="2064.57" y="1112.78"> Smik</text>
</g>
</svg>
