<?xml version="1.0" encoding="utf-8"?>
<svg xmlns="http://www.w3.org/2000/svg" xmlns:xlink="http://www.w3.org/1999/xlink" width="600" height="400" viewBox="0 0 2400 1600">
<defs>
  <clipPath id="clip450">
    <rect x="0" y="0" width="2400" height="1600"/>
  </clipPath>
</defs>
<path clip-path="url(#clip450)" d="
M0 1600 L2400 1600 L2400 0 L0 0  Z
  " fill="#ffffff" fill-rule="evenodd" fill-opacity="1"/>
<defs>
  <clipPath id="clip451">
    <rect x="480" y="0" width="1681" height="1600"/>
  </clipPath>
</defs>
<path clip-path="url(#clip450)" d="
M47.2441 1486.45 L1102.64 1486.45 L1102.64 47.2441 L47.2441 47.2441  Z
  " fill="#ffffff" fill-rule="evenodd" fill-opacity="1"/>
<defs>
  <clipPath id="clip452">
    <rect x="47" y="47" width="1056" height="1440"/>
  </clipPath>
</defs>
<polyline clip-path="url(#clip452)" style="stroke:#000000; stroke-linecap:butt; stroke-linejoin:round; stroke-width:4; stroke-opacity:1; fill:none" points="
  47.2441,1576.4 47.2441,1576.4 
  "/>
<polyline clip-path="url(#clip452)" style="stroke:#000000; stroke-linecap:butt; stroke-linejoin:round; stroke-width:4; stroke-opacity:1; fill:none" points="
  47.2441,1576.4 47.2441,1576.4 
  "/>
<polyline clip-path="url(#clip452)" style="stroke:#000000; stroke-linecap:butt; stroke-linejoin:round; stroke-width:4; stroke-opacity:1; fill:none" points="
  970.715,1396.5 838.79,1396.5 838.79,1216.6 970.715,1216.6 
  "/>
<polyline clip-path="url(#clip452)" style="stroke:#000000; stroke-linecap:butt; stroke-linejoin:round; stroke-width:4; stroke-opacity:1; fill:none" points="
  47.2441,1576.4 47.2441,1576.4 
  "/>
<polyline clip-path="url(#clip452)" style="stroke:#000000; stroke-linecap:butt; stroke-linejoin:round; stroke-width:4; stroke-opacity:1; fill:none" points="
  838.79,1306.55 706.866,1306.55 706.866,1036.7 970.715,1036.7 
  "/>
<polyline clip-path="url(#clip452)" style="stroke:#000000; stroke-linecap:butt; stroke-linejoin:round; stroke-width:4; stroke-opacity:1; fill:none" points="
  47.2441,1576.4 47.2441,1576.4 
  "/>
<polyline clip-path="url(#clip452)" style="stroke:#000000; stroke-linecap:butt; stroke-linejoin:round; stroke-width:4; stroke-opacity:1; fill:none" points="
  706.866,1171.62 574.942,1171.62 574.942,856.796 970.715,856.796 
  "/>
<polyline clip-path="url(#clip452)" style="stroke:#000000; stroke-linecap:butt; stroke-linejoin:round; stroke-width:4; stroke-opacity:1; fill:none" points="
  47.2441,1576.4 47.2441,1576.4 
  "/>
<polyline clip-path="url(#clip452)" style="stroke:#000000; stroke-linecap:butt; stroke-linejoin:round; stroke-width:4; stroke-opacity:1; fill:none" points="
  574.942,1014.21 443.017,1014.21 443.017,676.896 970.715,676.896 
  "/>
<polyline clip-path="url(#clip452)" style="stroke:#000000; stroke-linecap:butt; stroke-linejoin:round; stroke-width:4; stroke-opacity:1; fill:none" points="
  47.2441,1576.4 47.2441,1576.4 
  "/>
<polyline clip-path="url(#clip452)" style="stroke:#000000; stroke-linecap:butt; stroke-linejoin:round; stroke-width:4; stroke-opacity:1; fill:none" points="
  443.017,845.552 311.093,845.552 311.093,496.995 970.715,496.995 
  "/>
<polyline clip-path="url(#clip452)" style="stroke:#000000; stroke-linecap:butt; stroke-linejoin:round; stroke-width:4; stroke-opacity:1; fill:none" points="
  47.2441,1576.4 47.2441,1576.4 
  "/>
<polyline clip-path="url(#clip452)" style="stroke:#000000; stroke-linecap:butt; stroke-linejoin:round; stroke-width:4; stroke-opacity:1; fill:none" points="
  311.093,671.274 179.168,671.274 179.168,317.095 970.715,317.095 
  "/>
<polyline clip-path="url(#clip452)" style="stroke:#000000; stroke-linecap:butt; stroke-linejoin:round; stroke-width:4; stroke-opacity:1; fill:none" points="
  47.2441,1576.4 47.2441,1576.4 
  "/>
<polyline clip-path="url(#clip452)" style="stroke:#000000; stroke-linecap:butt; stroke-linejoin:round; stroke-width:4; stroke-opacity:1; fill:none" points="
  179.168,494.184 47.2441,494.184 47.2441,137.194 970.715,137.194 
  "/>
<g clip-path="url(#clip450)">
<text style="fill:#000000; fill-opacity:1; font-family:Arial,Helvetica Neue,Helvetica,sans-serif; font-size:84px; font-style:italic; text-anchor:start;" transform="rotate(0, 970.715, 707.396)" x="970.715" y="707.396"> Sbay</text>
</g>
<g clip-path="url(#clip450)">
<text style="fill:#000000; fill-opacity:1; font-family:Arial,Helvetica Neue,Helvetica,sans-serif; font-size:84px; font-style:italic; text-anchor:start;" transform="rotate(0, 970.715, 1427)" x="970.715" y="1427"> Scer</text>
</g>
<g clip-path="url(#clip450)">
<text style="fill:#000000; fill-opacity:1; font-family:Arial,Helvetica Neue,Helvetica,sans-serif; font-size:84px; font-style:italic; text-anchor:start;" transform="rotate(0, 970.715, 887.296)" x="970.715" y="887.296"> Skud</text>
</g>
<g clip-path="url(#clip450)">
<text style="fill:#000000; fill-opacity:1; font-family:Arial,Helvetica Neue,Helvetica,sans-serif; font-size:84px; font-style:italic; text-anchor:start;" transform="rotate(0, 970.715, 1247.1)" x="970.715" y="1247.1"> Spar</text>
</g>
<g clip-path="url(#clip450)">
<text style="fill:#000000; fill-opacity:1; font-family:Arial,Helvetica Neue,Helvetica,sans-serif; font-size:84px; font-style:italic; text-anchor:start;" transform="rotate(0, 970.715, 347.595)" x="970.715" y="347.595"> Sklu</text>
</g>
<g clip-path="url(#clip450)">
<text style="fill:#000000; fill-opacity:1; font-family:Arial,Helvetica Neue,Helvetica,sans-serif; font-size:84px; font-style:italic; text-anchor:start;" transform="rotate(0, 970.715, 527.495)" x="970.715" y="527.495"> Scas</text>
</g>
<g clip-path="url(#clip450)">
<text style="fill:#000000; fill-opacity:1; font-family:Arial,Helvetica Neue,Helvetica,sans-serif; font-size:84px; font-style:italic; text-anchor:start;" transform="rotate(0, 970.715, 167.694)" x="970.715" y="167.694"> Calb</text>
</g>
<g clip-path="url(#clip450)">
<text style="fill:#000000; fill-opacity:1; font-family:Arial,Helvetica Neue,Helvetica,sans-serif; font-size:84px; font-style:italic; text-anchor:start;" transform="rotate(0, 970.715, 1067.2)" x="970.715" y="1067.2"> Smik</text>
</g>
<path clip-path="url(#clip450)" d="
M1297.36 1486.45 L2352.76 1486.45 L2352.76 47.2441 L1297.36 47.2441  Z
  " fill="#ffffff" fill-rule="evenodd" fill-opacity="1"/>
<defs>
  <clipPath id="clip453">
    <rect x="1297" y="47" width="1056" height="1440"/>
  </clipPath>
</defs>
<polyline clip-path="url(#clip453)" style="stroke:#000000; stroke-linecap:butt; stroke-linejoin:round; stroke-width:2; stroke-opacity:0.1; fill:none" points="
  1317.17,1486.45 1317.17,47.2441 
  "/>
<polyline clip-path="url(#clip453)" style="stroke:#000000; stroke-linecap:butt; stroke-linejoin:round; stroke-width:2; stroke-opacity:0.1; fill:none" points="
  1568.6,1486.45 1568.6,47.2441 
  "/>
<polyline clip-path="url(#clip453)" style="stroke:#000000; stroke-linecap:butt; stroke-linejoin:round; stroke-width:2; stroke-opacity:0.1; fill:none" points="
  1820.03,1486.45 1820.03,47.2441 
  "/>
<polyline clip-path="url(#clip453)" style="stroke:#000000; stroke-linecap:butt; stroke-linejoin:round; stroke-width:2; stroke-opacity:0.1; fill:none" points="
  2071.46,1486.45 2071.46,47.2441 
  "/>
<polyline clip-path="url(#clip453)" style="stroke:#000000; stroke-linecap:butt; stroke-linejoin:round; stroke-width:2; stroke-opacity:0.1; fill:none" points="
  2322.89,1486.45 2322.89,47.2441 
  "/>
<polyline clip-path="url(#clip450)" style="stroke:#000000; stroke-linecap:butt; stroke-linejoin:round; stroke-width:4; stroke-opacity:1; fill:none" points="
  1297.36,1486.45 2352.76,1486.45 
  "/>
<polyline clip-path="url(#clip450)" style="stroke:#000000; stroke-linecap:butt; stroke-linejoin:round; stroke-width:4; stroke-opacity:1; fill:none" points="
  1317.17,1486.45 1317.17,1467.55 
  "/>
<polyline clip-path="url(#clip450)" style="stroke:#000000; stroke-linecap:butt; stroke-linejoin:round; stroke-width:4; stroke-opacity:1; fill:none" points="
  1568.6,1486.45 1568.6,1467.55 
  "/>
<polyline clip-path="url(#clip450)" style="stroke:#000000; stroke-linecap:butt; stroke-linejoin:round; stroke-width:4; stroke-opacity:1; fill:none" points="
  1820.03,1486.45 1820.03,1467.55 
  "/>
<polyline clip-path="url(#clip450)" style="stroke:#000000; stroke-linecap:butt; stroke-linejoin:round; stroke-width:4; stroke-opacity:1; fill:none" points="
  2071.46,1486.45 2071.46,1467.55 
  "/>
<polyline clip-path="url(#clip450)" style="stroke:#000000; stroke-linecap:butt; stroke-linejoin:round; stroke-width:4; stroke-opacity:1; fill:none" points="
  2322.89,1486.45 2322.89,1467.55 
  "/>
<path clip-path="url(#clip450)" d="M1317.17 1517.37 Q1313.56 1517.37 1311.73 1520.93 Q1309.93 1524.47 1309.93 1531.6 Q1309.93 1538.71 1311.73 1542.27 Q1313.56 1545.82 1317.17 1545.82 Q1320.81 1545.82 1322.61 1542.27 Q1324.44 1538.71 1324.44 1531.6 Q1324.44 1524.47 1322.61 1520.93 Q1320.81 1517.37 1317.17 1517.37 M1317.17 1513.66 Q1322.98 1513.66 1326.04 1518.27 Q1329.12 1522.85 1329.12 1531.6 Q1329.12 1540.33 1326.04 1544.94 Q1322.98 1549.52 1317.17 1549.52 Q1311.36 1549.52 1308.28 1544.94 Q1305.23 1540.33 1305.23 1531.6 Q1305.23 1522.85 1308.28 1518.27 Q1311.36 1513.66 1317.17 1513.66 Z" fill="#000000" fill-rule="evenodd" fill-opacity="1" /><path clip-path="url(#clip450)" d="M1547.87 1544.91 L1564.19 1544.91 L1564.19 1548.85 L1542.25 1548.85 L1542.25 1544.91 Q1544.91 1542.16 1549.49 1537.53 Q1554.1 1532.88 1555.28 1531.53 Q1557.53 1529.01 1558.41 1527.27 Q1559.31 1525.51 1559.31 1523.82 Q1559.31 1521.07 1557.36 1519.33 Q1555.44 1517.6 1552.34 1517.6 Q1550.14 1517.6 1547.69 1518.36 Q1545.26 1519.13 1542.48 1520.68 L1542.48 1515.95 Q1545.3 1514.82 1547.76 1514.24 Q1550.21 1513.66 1552.25 1513.66 Q1557.62 1513.66 1560.81 1516.35 Q1564.01 1519.03 1564.01 1523.52 Q1564.01 1525.65 1563.2 1527.57 Q1562.41 1529.47 1560.3 1532.07 Q1559.72 1532.74 1556.62 1535.95 Q1553.52 1539.15 1547.87 1544.91 Z" fill="#000000" fill-rule="evenodd" fill-opacity="1" /><path clip-path="url(#clip450)" d="M1574.05 1514.29 L1592.41 1514.29 L1592.41 1518.22 L1578.34 1518.22 L1578.34 1526.7 Q1579.35 1526.35 1580.37 1526.19 Q1581.39 1526 1582.41 1526 Q1588.2 1526 1591.58 1529.17 Q1594.96 1532.34 1594.96 1537.76 Q1594.96 1543.34 1591.48 1546.44 Q1588.01 1549.52 1581.69 1549.52 Q1579.52 1549.52 1577.25 1549.15 Q1575 1548.78 1572.59 1548.04 L1572.59 1543.34 Q1574.68 1544.47 1576.9 1545.03 Q1579.12 1545.58 1581.6 1545.58 Q1585.6 1545.58 1587.94 1543.48 Q1590.28 1541.37 1590.28 1537.76 Q1590.28 1534.15 1587.94 1532.04 Q1585.6 1529.94 1581.6 1529.94 Q1579.72 1529.94 1577.85 1530.35 Q1576 1530.77 1574.05 1531.65 L1574.05 1514.29 Z" fill="#000000" fill-rule="evenodd" fill-opacity="1" /><path clip-path="url(#clip450)" d="M1794.73 1514.29 L1813.09 1514.29 L1813.09 1518.22 L1799.01 1518.22 L1799.01 1526.7 Q1800.03 1526.35 1801.05 1526.19 Q1802.07 1526 1803.09 1526 Q1808.87 1526 1812.25 1529.17 Q1815.63 1532.34 1815.63 1537.76 Q1815.63 1543.34 1812.16 1546.44 Q1808.69 1549.52 1802.37 1549.52 Q1800.19 1549.52 1797.92 1549.15 Q1795.68 1548.78 1793.27 1548.04 L1793.27 1543.34 Q1795.35 1544.47 1797.58 1545.03 Q1799.8 1545.58 1802.28 1545.58 Q1806.28 1545.58 1808.62 1543.48 Q1810.96 1541.37 1810.96 1537.76 Q1810.96 1534.15 1808.62 1532.04 Q1806.28 1529.94 1802.28 1529.94 Q1800.4 1529.94 1798.53 1530.35 Q1796.67 1530.77 1794.73 1531.65 L1794.73 1514.29 Z" fill="#000000" fill-rule="evenodd" fill-opacity="1" /><path clip-path="url(#clip450)" d="M1834.84 1517.37 Q1831.23 1517.37 1829.4 1520.93 Q1827.6 1524.47 1827.6 1531.6 Q1827.6 1538.71 1829.4 1542.27 Q1831.23 1545.82 1834.84 1545.82 Q1838.48 1545.82 1840.28 1542.27 Q1842.11 1538.71 1842.11 1531.6 Q1842.11 1524.47 1840.28 1520.93 Q1838.48 1517.37 1834.84 1517.37 M1834.84 1513.66 Q1840.65 1513.66 1843.71 1518.27 Q1846.79 1522.85 1846.79 1531.6 Q1846.79 1540.33 1843.71 1544.94 Q1840.65 1549.52 1834.84 1549.52 Q1829.03 1549.52 1825.96 1544.94 Q1822.9 1540.33 1822.9 1531.6 Q1822.9 1522.85 1825.96 1518.27 Q1829.03 1513.66 1834.84 1513.66 Z" fill="#000000" fill-rule="evenodd" fill-opacity="1" /><path clip-path="url(#clip450)" d="M2045.31 1514.29 L2067.53 1514.29 L2067.53 1516.28 L2054.99 1548.85 L2050.1 1548.85 L2061.91 1518.22 L2045.31 1518.22 L2045.31 1514.29 Z" fill="#000000" fill-rule="evenodd" fill-opacity="1" /><path clip-path="url(#clip450)" d="M2076.7 1514.29 L2095.06 1514.29 L2095.06 1518.22 L2080.98 1518.22 L2080.98 1526.7 Q2082 1526.35 2083.02 1526.19 Q2084.04 1526 2085.06 1526 Q2090.84 1526 2094.22 1529.17 Q2097.6 1532.34 2097.6 1537.76 Q2097.6 1543.34 2094.13 1546.44 Q2090.66 1549.52 2084.34 1549.52 Q2082.16 1549.52 2079.9 1549.15 Q2077.65 1548.78 2075.24 1548.04 L2075.24 1543.34 Q2077.33 1544.47 2079.55 1545.03 Q2081.77 1545.58 2084.25 1545.58 Q2088.25 1545.58 2090.59 1543.48 Q2092.93 1541.37 2092.93 1537.76 Q2092.93 1534.15 2090.59 1532.04 Q2088.25 1529.94 2084.25 1529.94 Q2082.37 1529.94 2080.5 1530.35 Q2078.65 1530.77 2076.7 1531.65 L2076.7 1514.29 Z" fill="#000000" fill-rule="evenodd" fill-opacity="1" /><path clip-path="url(#clip450)" d="M2282.49 1544.91 L2290.13 1544.91 L2290.13 1518.55 L2281.82 1520.21 L2281.82 1515.95 L2290.09 1514.29 L2294.76 1514.29 L2294.76 1544.91 L2302.4 1544.91 L2302.4 1548.85 L2282.49 1548.85 L2282.49 1544.91 Z" fill="#000000" fill-rule="evenodd" fill-opacity="1" /><path clip-path="url(#clip450)" d="M2321.84 1517.37 Q2318.23 1517.37 2316.4 1520.93 Q2314.6 1524.47 2314.6 1531.6 Q2314.6 1538.71 2316.4 1542.27 Q2318.23 1545.82 2321.84 1545.82 Q2325.48 1545.82 2327.28 1542.27 Q2329.11 1538.71 2329.11 1531.6 Q2329.11 1524.47 2327.28 1520.93 Q2325.48 1517.37 2321.84 1517.37 M2321.84 1513.66 Q2327.65 1513.66 2330.71 1518.27 Q2333.79 1522.85 2333.79 1531.6 Q2333.79 1540.33 2330.71 1544.94 Q2327.65 1549.52 2321.84 1549.52 Q2316.03 1549.52 2312.96 1544.94 Q2309.9 1540.33 2309.9 1531.6 Q2309.9 1522.85 2312.96 1518.27 Q2316.03 1513.66 2321.84 1513.66 Z" fill="#000000" fill-rule="evenodd" fill-opacity="1" /><path clip-path="url(#clip450)" d="M2352.01 1517.37 Q2348.4 1517.37 2346.57 1520.93 Q2344.76 1524.47 2344.76 1531.6 Q2344.76 1538.71 2346.57 1542.27 Q2348.4 1545.82 2352.01 1545.82 Q2355.64 1545.82 2357.45 1542.27 Q2359.27 1538.71 2359.27 1531.6 Q2359.27 1524.47 2357.45 1520.93 Q2355.64 1517.37 2352.01 1517.37 M2352.01 1513.66 Q2357.82 1513.66 2360.87 1518.27 Q2363.95 1522.85 2363.95 1531.6 Q2363.95 1540.33 2360.87 1544.94 Q2357.82 1549.52 2352.01 1549.52 Q2346.2 1549.52 2343.12 1544.94 Q2340.06 1540.33 2340.06 1531.6 Q2340.06 1522.85 2343.12 1518.27 Q2346.2 1513.66 2352.01 1513.66 Z" fill="#000000" fill-rule="evenodd" fill-opacity="1" /><polyline clip-path="url(#clip453)" style="stroke:#000000; stroke-linecap:butt; stroke-linejoin:round; stroke-width:2; stroke-opacity:0.1; fill:none" points="
  1297.36,1255.86 2352.76,1255.86 
  "/>
<polyline clip-path="url(#clip453)" style="stroke:#000000; stroke-linecap:butt; stroke-linejoin:round; stroke-width:2; stroke-opacity:0.1; fill:none" points="
  1297.36,1000.08 2352.76,1000.08 
  "/>
<polyline clip-path="url(#clip453)" style="stroke:#000000; stroke-linecap:butt; stroke-linejoin:round; stroke-width:2; stroke-opacity:0.1; fill:none" points="
  1297.36,744.303 2352.76,744.303 
  "/>
<polyline clip-path="url(#clip453)" style="stroke:#000000; stroke-linecap:butt; stroke-linejoin:round; stroke-width:2; stroke-opacity:0.1; fill:none" points="
  1297.36,488.525 2352.76,488.525 
  "/>
<polyline clip-path="url(#clip453)" style="stroke:#000000; stroke-linecap:butt; stroke-linejoin:round; stroke-width:2; stroke-opacity:0.1; fill:none" points="
  1297.36,232.748 2352.76,232.748 
  "/>
<polyline clip-path="url(#clip450)" style="stroke:#000000; stroke-linecap:butt; stroke-linejoin:round; stroke-width:4; stroke-opacity:1; fill:none" points="
  1297.36,1486.45 1297.36,47.2441 
  "/>
<polyline clip-path="url(#clip450)" style="stroke:#000000; stroke-linecap:butt; stroke-linejoin:round; stroke-width:4; stroke-opacity:1; fill:none" points="
  1297.36,1255.86 1316.26,1255.86 
  "/>
<polyline clip-path="url(#clip450)" style="stroke:#000000; stroke-linecap:butt; stroke-linejoin:round; stroke-width:4; stroke-opacity:1; fill:none" points="
  1297.36,1000.08 1316.26,1000.08 
  "/>
<polyline clip-path="url(#clip450)" style="stroke:#000000; stroke-linecap:butt; stroke-linejoin:round; stroke-width:4; stroke-opacity:1; fill:none" points="
  1297.36,744.303 1316.26,744.303 
  "/>
<polyline clip-path="url(#clip450)" style="stroke:#000000; stroke-linecap:butt; stroke-linejoin:round; stroke-width:4; stroke-opacity:1; fill:none" points="
  1297.36,488.525 1316.26,488.525 
  "/>
<polyline clip-path="url(#clip450)" style="stroke:#000000; stroke-linecap:butt; stroke-linejoin:round; stroke-width:4; stroke-opacity:1; fill:none" points="
  1297.36,232.748 1316.26,232.748 
  "/>
<path clip-path="url(#clip450)" d="M1201.25 1256.31 L1230.92 1256.31 L1230.92 1260.24 L1201.25 1260.24 L1201.25 1256.31 Z" fill="#000000" fill-rule="evenodd" fill-opacity="1" /><path clip-path="url(#clip450)" d="M1245.04 1269.2 L1261.36 1269.2 L1261.36 1273.14 L1239.42 1273.14 L1239.42 1269.2 Q1242.08 1266.45 1246.66 1261.82 Q1251.27 1257.17 1252.45 1255.82 Q1254.69 1253.3 1255.57 1251.56 Q1256.48 1249.8 1256.48 1248.11 Q1256.48 1245.36 1254.53 1243.62 Q1252.61 1241.89 1249.51 1241.89 Q1247.31 1241.89 1244.86 1242.65 Q1242.43 1243.42 1239.65 1244.97 L1239.65 1240.24 Q1242.47 1239.11 1244.93 1238.53 Q1247.38 1237.95 1249.42 1237.95 Q1254.79 1237.95 1257.98 1240.64 Q1261.18 1243.32 1261.18 1247.81 Q1261.18 1249.94 1260.37 1251.86 Q1259.58 1253.76 1257.47 1256.36 Q1256.89 1257.03 1253.79 1260.24 Q1250.69 1263.44 1245.04 1269.2 Z" fill="#000000" fill-rule="evenodd" fill-opacity="1" /><path clip-path="url(#clip450)" d="M1200.88 1000.53 L1230.55 1000.53 L1230.55 1004.47 L1200.88 1004.47 L1200.88 1000.53 Z" fill="#000000" fill-rule="evenodd" fill-opacity="1" /><path clip-path="url(#clip450)" d="M1241.45 1013.43 L1249.09 1013.43 L1249.09 987.06 L1240.78 988.726 L1240.78 984.467 L1249.05 982.8 L1253.72 982.8 L1253.72 1013.43 L1261.36 1013.43 L1261.36 1017.36 L1241.45 1017.36 L1241.45 1013.43 Z" fill="#000000" fill-rule="evenodd" fill-opacity="1" /><path clip-path="url(#clip450)" d="M1249.42 730.102 Q1245.81 730.102 1243.98 733.666 Q1242.17 737.208 1242.17 744.338 Q1242.17 751.444 1243.98 755.009 Q1245.81 758.551 1249.42 758.551 Q1253.05 758.551 1254.86 755.009 Q1256.69 751.444 1256.69 744.338 Q1256.69 737.208 1254.86 733.666 Q1253.05 730.102 1249.42 730.102 M1249.42 726.398 Q1255.23 726.398 1258.28 731.004 Q1261.36 735.588 1261.36 744.338 Q1261.36 753.064 1258.28 757.671 Q1255.23 762.254 1249.42 762.254 Q1243.61 762.254 1240.53 757.671 Q1237.47 753.064 1237.47 744.338 Q1237.47 735.588 1240.53 731.004 Q1243.61 726.398 1249.42 726.398 Z" fill="#000000" fill-rule="evenodd" fill-opacity="1" /><path clip-path="url(#clip450)" d="M1241.45 501.87 L1249.09 501.87 L1249.09 475.505 L1240.78 477.171 L1240.78 472.912 L1249.05 471.245 L1253.72 471.245 L1253.72 501.87 L1261.36 501.87 L1261.36 505.805 L1241.45 505.805 L1241.45 501.87 Z" fill="#000000" fill-rule="evenodd" fill-opacity="1" /><path clip-path="url(#clip450)" d="M1245.04 246.093 L1261.36 246.093 L1261.36 250.028 L1239.42 250.028 L1239.42 246.093 Q1242.08 243.338 1246.66 238.709 Q1251.27 234.056 1252.45 232.713 Q1254.69 230.19 1255.57 228.454 Q1256.48 226.695 1256.48 225.005 Q1256.48 222.25 1254.53 220.514 Q1252.61 218.778 1249.51 218.778 Q1247.31 218.778 1244.86 219.542 Q1242.43 220.306 1239.65 221.857 L1239.65 217.135 Q1242.47 216 1244.93 215.422 Q1247.38 214.843 1249.42 214.843 Q1254.79 214.843 1257.98 217.528 Q1261.18 220.213 1261.18 224.704 Q1261.18 226.834 1260.37 228.755 Q1259.58 230.653 1257.47 233.246 Q1256.89 233.917 1253.79 237.135 Q1250.69 240.329 1245.04 246.093 Z" fill="#000000" fill-rule="evenodd" fill-opacity="1" /><polyline clip-path="url(#clip453)" style="stroke:#009af9; stroke-linecap:butt; stroke-linejoin:round; stroke-width:4; stroke-opacity:1; fill:none" points="
  1327.23,797.522 1337.29,995.012 1347.34,962.296 1357.4,802.893 1367.46,582.053 1377.52,892.56 1387.57,909.698 1397.63,862.281 1407.69,720.403 1417.74,837.53 
  1427.8,601.817 1437.86,1095.91 1447.92,913.33 1457.97,574.604 1468.03,392.247 1478.09,313.388 1488.14,817.139 1498.2,346.962 1508.26,528.293 1518.32,686.233 
  1528.37,470.643 1538.43,307.83 1548.49,488.052 1558.54,746.684 1568.6,1021.84 1578.66,1141.36 1588.72,975.253 1598.77,587.237 1608.83,1120.73 1618.89,791.155 
  1628.94,966.89 1639,610.475 1649.06,1219.86 1659.12,944.863 1669.17,598.643 1679.23,749.031 1689.29,405.788 1699.34,787.274 1709.4,862.731 1719.46,770.786 
  1729.52,717.705 1739.57,1285.19 1749.63,641.829 1759.69,652.362 1769.74,1046.62 1779.8,700.464 1789.86,691.452 1799.92,1041.29 1809.97,795.049 1820.03,749.18 
  1830.09,798.944 1840.14,912.218 1850.2,869.126 1860.26,1143.19 1870.32,1403.66 1880.37,786.184 1890.43,684.324 1900.49,844.913 1910.54,1183.74 1920.6,674.656 
  1930.66,233.969 1940.72,1418.73 1950.77,735.758 1960.83,801.625 1970.89,789.195 1980.94,872.63 1991,1093.16 2001.06,718.573 2011.12,381.414 2021.17,757.329 
  2031.23,575.821 2041.29,811.326 2051.34,600.932 2061.4,466.233 2071.46,847.139 2081.52,756.614 2091.57,963.219 2101.63,820.829 2111.69,628.615 2121.74,1089.19 
  2131.8,936.401 2141.86,761.663 2151.92,781.157 2161.97,542.662 2172.03,641.156 2182.09,314.337 2192.14,548.713 2202.2,797.771 2212.26,531.914 2222.31,598.611 
  2232.37,695.867 2242.43,1025.83 2252.49,718.46 2262.54,947.909 2272.6,87.9763 2282.66,1121.86 2292.71,997.349 2302.77,1445.72 2312.83,918.315 2322.89,1024.29 
  
  "/>
<path clip-path="url(#clip450)" d="
M2147.88 198.898 L2317.58 198.898 L2317.58 95.2176 L2147.88 95.2176  Z
  " fill="#ffffff" fill-rule="evenodd" fill-opacity="1"/>
<polyline clip-path="url(#clip450)" style="stroke:#000000; stroke-linecap:butt; stroke-linejoin:round; stroke-width:4; stroke-opacity:1; fill:none" points="
  2147.88,198.898 2317.58,198.898 2317.58,95.2176 2147.88,95.2176 2147.88,198.898 
  "/>
<polyline clip-path="url(#clip450)" style="stroke:#009af9; stroke-linecap:butt; stroke-linejoin:round; stroke-width:4; stroke-opacity:1; fill:none" points="
  2159.61,147.058 2229.97,147.058 
  "/>
<path clip-path="url(#clip450)" d="M2255.54 166.745 Q2253.73 171.375 2252.02 172.787 Q2250.3 174.199 2247.43 174.199 L2244.03 174.199 L2244.03 170.634 L2246.53 170.634 Q2248.29 170.634 2249.26 169.8 Q2250.23 168.967 2251.41 165.865 L2252.18 163.921 L2241.69 138.412 L2246.21 138.412 L2254.31 158.689 L2262.41 138.412 L2266.92 138.412 L2255.54 166.745 Z" fill="#000000" fill-rule="evenodd" fill-opacity="1" /><path clip-path="url(#clip450)" d="M2274.22 160.402 L2281.85 160.402 L2281.85 134.037 L2273.54 135.703 L2273.54 131.444 L2281.81 129.778 L2286.48 129.778 L2286.48 160.402 L2294.12 160.402 L2294.12 164.338 L2274.22 164.338 L2274.22 160.402 Z" fill="#000000" fill-rule="evenodd" fill-opacity="1" /></svg>
